<svg xmlns="http://www.w3.org/2000/svg" width="515.319" height="154.385" viewBox="0 0 515.319 154.385">
  <g id="Group_2" data-name="Group 2" transform="translate(-13.863 0)">
    <g id="Group_3" data-name="Group 3">
      <path id="Path_1" data-name="Path 1" d="M146.516,36.944,83.575.605a4.516,4.516,0,0,0-4.514,0L16.12,36.944a4.515,4.515,0,0,0-2.257,3.91v72.678a4.514,4.514,0,0,0,2.257,3.91l62.941,36.339a4.512,4.512,0,0,0,4.514,0l62.941-36.339a4.513,4.513,0,0,0,2.258-3.91V40.854a4.514,4.514,0,0,0-2.258-3.91M22.892,79.915,47.9,82.452a2.958,2.958,0,0,0,.324.017,3.177,3.177,0,0,0,.317-6.337l-25.651-2.6V43.46L78.082,11.6V142.79l-55.19-31.864Zm61.543,62.944V11.527l55.31,31.933V73.529l-25.652,2.6a3.177,3.177,0,0,0,.317,6.337,2.963,2.963,0,0,0,.325-.017l25.01-2.537v31.011Z"/>
      <path id="Path_2" data-name="Path 2" d="M41.595,168.1c1.235,0,1.1.549.617,1.3L25.63,192.7l18.568,27.2c.619.89.688,1.85-1.165,1.85H31.316A1.651,1.651,0,0,1,29.809,221L12.678,195.582v25.079c0,.754-.343,1.1-1.028,1.1H1.03c-.688,0-1.03-.343-1.03-1.1V169.2a.959.959,0,0,1,1.03-1.1H11.649a.959.959,0,0,1,1.028,1.1v21.86l15.76-22.271a1.822,1.822,0,0,1,1.439-.685Z" transform="translate(188.669 -117.701)"/>
      <path id="Path_3" data-name="Path 3" d="M66.98,195.174c0,20.9-5.073,27.137-22.888,27.137s-22.82-6.236-22.82-27.137c0-21.036,5-27.271,22.82-27.271s22.888,6.236,22.888,27.271m-32.894,0c0,12.13,1.782,16.1,10.006,16.1,8.29,0,10-3.973,10-16.1,0-12.265-1.714-16.239-10-16.239-8.224,0-10.006,3.975-10.006,16.239" transform="translate(211.319 -117.913)"/>
      <path id="Path_4" data-name="Path 4" d="M91.328,168.1a.959.959,0,0,1,1.028,1.1v51.394c0,.822-.343,1.165-1.028,1.165H83.859a4.155,4.155,0,0,1-3.977-1.986L59.669,190.783v29.809c0,.822-.343,1.165-1.028,1.165H48.019c-.685,0-1.028-.343-1.028-1.165V169.2a.959.959,0,0,1,1.028-1.1h7.813c2.876,0,3.287.685,4.454,2.4l19.392,27.684V169.2a.957.957,0,0,1,1.026-1.1Z" transform="translate(238.703 -117.701)"/>
      <path id="Path_5" data-name="Path 5" d="M112.865,168.1a.959.959,0,0,1,1.1,1.028v8.978a.957.957,0,0,1-1.1,1.026H99.093v41.527c0,.754-.343,1.1-1.028,1.1H87.441c-.686,0-1.028-.343-1.028-1.1V179.134h-13.7a.907.907,0,0,1-1.028-1.026V169.13a.909.909,0,0,1,1.028-1.028Z" transform="translate(264.992 -117.701)"/>
      <path id="Path_6" data-name="Path 6" d="M131.4,168.1a.958.958,0,0,1,1.094,1.028v8.978a.957.957,0,0,1-1.094,1.026H107.555v10.691h21.86a.959.959,0,0,1,1.1,1.028v8.5a.959.959,0,0,1-1.1,1.028h-21.86v10.347H131.4a.958.958,0,0,1,1.094,1.028v8.976a.958.958,0,0,1-1.094,1.028h-35.5c-.685,0-1.028-.343-1.028-1.1V169.2a.959.959,0,0,1,1.028-1.1Z" transform="translate(289.692 -117.701)"/>
      <path id="Path_7" data-name="Path 7" d="M161.084,168.1a.959.959,0,0,1,1.028,1.1v51.394c0,.822-.343,1.165-1.028,1.165h-7.468a4.155,4.155,0,0,1-3.977-1.986l-20.214-28.987v29.809c0,.822-.343,1.165-1.028,1.165H117.775c-.686,0-1.028-.343-1.028-1.165V169.2a.959.959,0,0,1,1.028-1.1h7.813c2.876,0,3.287.685,4.454,2.4l19.392,27.684V169.2a.957.957,0,0,1,1.026-1.1Z" transform="translate(312.977 -117.701)"/>
      <path id="Path_8" data-name="Path 8" d="M178.162,176.194l12.2,44.677c.136.754-.206,1.1-.892,1.1H178.984c-.617,0-.754-.343-.958-1.1l-3.7-13.84h-17.2l-3.836,13.84c-.206.754-.275,1.1-.892,1.1H141.913c-.686,0-1.028-.343-.892-1.1l12.267-44.677c2.125-7.675,3.63-8.292,12.4-8.292,8.909,0,10.349.685,12.473,8.292m-13.636,3.357-4.592,17.131h11.581l-4.66-17.131c-.275-.89-.343-1.1-1.235-1.1-.752,0-.82.206-1.094,1.1" transform="translate(338.791 -117.914)"/>
    </g>
  </g>
</svg>
